<mxfile host="app.diagrams.net" modified="2024-07-01T04:21:58.142Z" agent="Mozilla/5.0 (Macintosh; Intel Mac OS X 10_15_7) AppleWebKit/537.36 (KHTML, like Gecko) Chrome/125.0.0.0 Safari/537.36" etag="ZHx0nPDwE-i7qu6ixWPe" version="24.6.4" type="github">
  <diagram name="Page-1" id="58cdce13-f638-feb5-8d6f-7d28b1aa9fa0">
    <mxGraphModel dx="2026" dy="963" grid="1" gridSize="20" guides="1" tooltips="1" connect="1" arrows="1" fold="1" page="1" pageScale="1" pageWidth="1700" pageHeight="1100" math="0" shadow="0">
      <root>
        <mxCell id="0" />
        <mxCell id="1" parent="0" />
        <mxCell id="QCrEsBUGIYsQ7TPKggf3-7" style="edgeStyle=orthogonalEdgeStyle;curved=1;rounded=1;sketch=1;orthogonalLoop=1;jettySize=auto;html=1;exitX=0;exitY=0;exitDx=0;exitDy=0;entryX=0.5;entryY=0;entryDx=0;entryDy=0;fontSize=18;strokeWidth=2;endSize=10;" parent="1" source="QCrEsBUGIYsQ7TPKggf3-4" target="QCrEsBUGIYsQ7TPKggf3-5" edge="1">
          <mxGeometry relative="1" as="geometry">
            <Array as="points">
              <mxPoint x="1500" y="240" />
              <mxPoint x="1210" y="240" />
            </Array>
          </mxGeometry>
        </mxCell>
        <mxCell id="QCrEsBUGIYsQ7TPKggf3-8" value="&lt;font face=&quot;Comic Sans MS&quot; color=&quot;#336600&quot;&gt;add [filename]&lt;/font&gt;" style="edgeLabel;html=1;align=center;verticalAlign=bottom;resizable=0;points=[];fontSize=18;labelBackgroundColor=none;labelPosition=center;verticalLabelPosition=top;" parent="QCrEsBUGIYsQ7TPKggf3-7" vertex="1" connectable="0">
          <mxGeometry x="-0.0293" y="2" relative="1" as="geometry">
            <mxPoint as="offset" />
          </mxGeometry>
        </mxCell>
        <mxCell id="kZsXW3HzWFgNGFYynsF7-2" style="edgeStyle=orthogonalEdgeStyle;orthogonalLoop=1;jettySize=auto;html=1;exitX=0.75;exitY=0;exitDx=0;exitDy=0;entryX=1;entryY=0.5;entryDx=0;entryDy=0;entryPerimeter=0;fontSize=16;curved=1;endSize=10;strokeWidth=2;" parent="1" source="QCrEsBUGIYsQ7TPKggf3-4" target="kZsXW3HzWFgNGFYynsF7-1" edge="1">
          <mxGeometry relative="1" as="geometry" />
        </mxCell>
        <mxCell id="kZsXW3HzWFgNGFYynsF7-3" value="stash" style="edgeLabel;html=1;align=center;verticalAlign=middle;resizable=0;points=[];fontSize=16;" parent="kZsXW3HzWFgNGFYynsF7-2" connectable="0" vertex="1">
          <mxGeometry x="-0.075" y="36" relative="1" as="geometry">
            <mxPoint as="offset" />
          </mxGeometry>
        </mxCell>
        <mxCell id="QCrEsBUGIYsQ7TPKggf3-4" value="&lt;font style=&quot;font-size: 18px&quot;&gt;WorkSpace&lt;/font&gt;" style="label;whiteSpace=wrap;html=1;align=center;verticalAlign=bottom;spacingLeft=0;spacingBottom=4;imageAlign=center;imageVerticalAlign=top;image=img/clipart/Gear_128x128.png;rounded=1;sketch=1;fillColor=#ffe6cc;strokeColor=#d79b00;" parent="1" vertex="1">
          <mxGeometry x="1500" y="320" width="160" height="100" as="geometry" />
        </mxCell>
        <mxCell id="QCrEsBUGIYsQ7TPKggf3-11" value="&lt;font style=&quot;line-height: 1.7&quot;&gt;commit&lt;/font&gt;" style="edgeStyle=orthogonalEdgeStyle;curved=1;rounded=1;sketch=1;orthogonalLoop=1;jettySize=auto;html=1;exitX=0.15;exitY=0.05;exitDx=0;exitDy=0;exitPerimeter=0;entryX=0.5;entryY=0;entryDx=0;entryDy=0;fontSize=18;strokeWidth=2;fontColor=#336600;labelBorderColor=none;fontFamily=Comic Sans MS;shadow=0;strokeColor=default;labelPosition=center;verticalLabelPosition=top;align=center;verticalAlign=bottom;labelBackgroundColor=none;endSize=10;" parent="1" source="QCrEsBUGIYsQ7TPKggf3-5" target="QCrEsBUGIYsQ7TPKggf3-10" edge="1">
          <mxGeometry relative="1" as="geometry">
            <Array as="points">
              <mxPoint x="1175" y="200" />
              <mxPoint x="840" y="200" />
            </Array>
          </mxGeometry>
        </mxCell>
        <mxCell id="QCrEsBUGIYsQ7TPKggf3-22" value="checkout -- [filename]" style="edgeStyle=orthogonalEdgeStyle;curved=1;rounded=1;sketch=1;orthogonalLoop=1;jettySize=auto;html=1;exitX=0.85;exitY=0.95;exitDx=0;exitDy=0;exitPerimeter=0;shadow=0;labelBackgroundColor=none;labelBorderColor=none;fontFamily=Comic Sans MS;fontSize=18;fontColor=#336600;strokeColor=default;strokeWidth=2;align=center;entryX=0;entryY=1;entryDx=0;entryDy=0;labelPosition=center;verticalLabelPosition=top;verticalAlign=bottom;endSize=10;" parent="1" source="QCrEsBUGIYsQ7TPKggf3-5" target="QCrEsBUGIYsQ7TPKggf3-4" edge="1">
          <mxGeometry x="0.0493" y="20" relative="1" as="geometry">
            <mxPoint x="1380" y="460" as="targetPoint" />
            <Array as="points">
              <mxPoint x="1245" y="500" />
              <mxPoint x="1500" y="500" />
            </Array>
            <mxPoint as="offset" />
          </mxGeometry>
        </mxCell>
        <mxCell id="QCrEsBUGIYsQ7TPKggf3-5" value="&lt;font style=&quot;font-size: 18px&quot;&gt;Stage&lt;/font&gt;" style="shape=datastore;whiteSpace=wrap;html=1;rounded=1;sketch=1;fillColor=#fff2cc;strokeColor=#d6b656;" parent="1" vertex="1">
          <mxGeometry x="1160" y="305" width="100" height="115" as="geometry" />
        </mxCell>
        <mxCell id="QCrEsBUGIYsQ7TPKggf3-13" value="2.|5. &amp;nbsp;checkout .&amp;nbsp;" style="edgeStyle=orthogonalEdgeStyle;curved=1;rounded=1;sketch=1;orthogonalLoop=1;jettySize=auto;html=1;exitX=0.375;exitY=0.988;exitDx=0;exitDy=0;entryX=0.25;entryY=1;entryDx=0;entryDy=0;fontSize=18;strokeWidth=1;exitPerimeter=0;dashed=1;fontColor=#336600;labelBackgroundColor=none;fontFamily=Comic Sans MS;endSize=10;" parent="1" source="QCrEsBUGIYsQ7TPKggf3-14" target="QCrEsBUGIYsQ7TPKggf3-4" edge="1">
          <mxGeometry relative="1" as="geometry">
            <Array as="points">
              <mxPoint x="1135" y="680" />
              <mxPoint x="1540" y="680" />
            </Array>
          </mxGeometry>
        </mxCell>
        <mxCell id="QCrEsBUGIYsQ7TPKggf3-15" value="&lt;div style=&quot;text-align: left ; font-size: 18px&quot;&gt;1. reset --hard 或&lt;/div&gt;checkout [hash|tag]&amp;nbsp;" style="edgeStyle=orthogonalEdgeStyle;curved=1;rounded=1;sketch=1;orthogonalLoop=1;jettySize=auto;html=1;exitX=0.5;exitY=1;exitDx=0;exitDy=0;entryX=0;entryY=0.5;entryDx=0;entryDy=0;fontSize=18;strokeWidth=2;fontStyle=0;fontColor=#336600;fontFamily=Comic Sans MS;labelBorderColor=none;labelBackgroundColor=none;" parent="1" source="QCrEsBUGIYsQ7TPKggf3-10" target="QCrEsBUGIYsQ7TPKggf3-14" edge="1">
          <mxGeometry x="0.4545" y="-20" relative="1" as="geometry">
            <Array as="points">
              <mxPoint x="840" y="640" />
            </Array>
            <mxPoint as="offset" />
          </mxGeometry>
        </mxCell>
        <mxCell id="QCrEsBUGIYsQ7TPKggf3-18" value="&amp;nbsp;reset --soft" style="edgeStyle=orthogonalEdgeStyle;curved=1;rounded=1;sketch=1;orthogonalLoop=1;jettySize=auto;html=1;exitX=0;exitY=0.3;exitDx=0;exitDy=0;shadow=0;labelBackgroundColor=none;labelBorderColor=none;fontFamily=Comic Sans MS;fontSize=18;fontColor=#336600;strokeColor=default;strokeWidth=2;align=left;entryX=0;entryY=0.7;entryDx=0;entryDy=0;labelPosition=right;verticalLabelPosition=middle;verticalAlign=middle;endSize=10;startSize=6;" parent="1" source="QCrEsBUGIYsQ7TPKggf3-10" target="QCrEsBUGIYsQ7TPKggf3-10" edge="1">
          <mxGeometry relative="1" as="geometry">
            <mxPoint x="700" y="312" as="targetPoint" />
            <Array as="points">
              <mxPoint x="760" y="280" />
              <mxPoint x="600" y="280" />
              <mxPoint x="600" y="408" />
            </Array>
          </mxGeometry>
        </mxCell>
        <mxCell id="QCrEsBUGIYsQ7TPKggf3-20" value="merge或&amp;nbsp;&lt;br&gt;rebase" style="edgeStyle=orthogonalEdgeStyle;curved=1;rounded=1;sketch=1;orthogonalLoop=1;jettySize=auto;html=1;exitX=1;exitY=0.7;exitDx=0;exitDy=0;shadow=0;labelBackgroundColor=none;labelBorderColor=none;fontFamily=Comic Sans MS;fontSize=18;fontColor=#336600;strokeColor=default;strokeWidth=2;align=left;entryX=0.85;entryY=0.05;entryDx=0;entryDy=0;entryPerimeter=0;endSize=10;" parent="1" source="QCrEsBUGIYsQ7TPKggf3-10" target="QCrEsBUGIYsQ7TPKggf3-10" edge="1">
          <mxGeometry relative="1" as="geometry">
            <mxPoint x="920" y="240" as="targetPoint" />
            <Array as="points">
              <mxPoint x="1000" y="408" />
              <mxPoint x="1000" y="220" />
              <mxPoint x="896" y="220" />
            </Array>
          </mxGeometry>
        </mxCell>
        <mxCell id="QCrEsBUGIYsQ7TPKggf3-24" value="reset --mixed" style="edgeStyle=orthogonalEdgeStyle;curved=1;rounded=1;sketch=1;orthogonalLoop=1;jettySize=auto;html=1;exitX=0.85;exitY=0.95;exitDx=0;exitDy=0;exitPerimeter=0;entryX=0.15;entryY=0.95;entryDx=0;entryDy=0;entryPerimeter=0;shadow=0;labelBackgroundColor=none;labelBorderColor=none;fontFamily=Comic Sans MS;fontSize=18;fontColor=#336600;strokeColor=default;strokeWidth=2;align=left;endSize=10;" parent="1" source="QCrEsBUGIYsQ7TPKggf3-10" target="QCrEsBUGIYsQ7TPKggf3-5" edge="1">
          <mxGeometry x="-0.1128" y="-20" relative="1" as="geometry">
            <Array as="points">
              <mxPoint x="896" y="500" />
              <mxPoint x="1175" y="500" />
            </Array>
            <mxPoint as="offset" />
          </mxGeometry>
        </mxCell>
        <mxCell id="QCrEsBUGIYsQ7TPKggf3-34" value="push 库名 分支名" style="edgeStyle=orthogonalEdgeStyle;curved=1;rounded=1;sketch=1;orthogonalLoop=1;jettySize=auto;html=1;exitX=0.15;exitY=0.05;exitDx=0;exitDy=0;exitPerimeter=0;entryX=0.686;entryY=0;entryDx=0;entryDy=0;entryPerimeter=0;shadow=0;labelBackgroundColor=none;labelBorderColor=none;fontFamily=Comic Sans MS;fontSize=18;fontColor=#336600;startSize=6;endSize=10;strokeColor=#336600;strokeWidth=2;align=left;" parent="1" source="QCrEsBUGIYsQ7TPKggf3-10" target="QCrEsBUGIYsQ7TPKggf3-25" edge="1">
          <mxGeometry x="-0.0179" y="20" relative="1" as="geometry">
            <Array as="points">
              <mxPoint x="784" y="180" />
              <mxPoint x="256" y="180" />
            </Array>
            <mxPoint as="offset" />
          </mxGeometry>
        </mxCell>
        <mxCell id="QCrEsBUGIYsQ7TPKggf3-10" value="&lt;font style=&quot;font-size: 18px&quot;&gt;Repository&lt;/font&gt;" style="shape=datastore;whiteSpace=wrap;html=1;rounded=1;sketch=1;labelBackgroundColor=default;fillColor=#66B2FF;" parent="1" vertex="1">
          <mxGeometry x="760" y="240" width="160" height="240" as="geometry" />
        </mxCell>
        <mxCell id="QCrEsBUGIYsQ7TPKggf3-21" value="reset --mixed" style="edgeStyle=orthogonalEdgeStyle;curved=1;rounded=1;sketch=1;orthogonalLoop=1;jettySize=auto;html=1;exitX=1;exitY=0;exitDx=0;exitDy=0;shadow=0;dashed=1;labelBackgroundColor=none;labelBorderColor=none;fontFamily=Comic Sans MS;fontSize=18;fontColor=#336600;strokeColor=default;strokeWidth=1;align=left;labelPosition=right;verticalLabelPosition=middle;verticalAlign=middle;endSize=10;" parent="1" source="QCrEsBUGIYsQ7TPKggf3-14" target="QCrEsBUGIYsQ7TPKggf3-5" edge="1">
          <mxGeometry relative="1" as="geometry">
            <mxPoint x="1200" y="480" as="targetPoint" />
            <Array as="points">
              <mxPoint x="1210" y="626" />
            </Array>
          </mxGeometry>
        </mxCell>
        <mxCell id="QCrEsBUGIYsQ7TPKggf3-14" value="" style="ellipse;shape=doubleEllipse;whiteSpace=wrap;html=1;aspect=fixed;rounded=1;sketch=1;fontSize=18;dashed=1;fillColor=#B9E0A5;labelBackgroundColor=none;labelBorderColor=none;fontColor=default;" parent="1" vertex="1">
          <mxGeometry x="1120" y="620" width="40" height="40" as="geometry" />
        </mxCell>
        <mxCell id="QCrEsBUGIYsQ7TPKggf3-28" value="&lt;font style=&quot;font-size: 16px&quot;&gt;fetch [远程库的名字]&lt;br&gt;&lt;/font&gt;&lt;br style=&quot;font-size: 13px&quot;&gt;把remote中所有的分支拉取到本地，形成&lt;br&gt;“本地远程分支”，此时本地分支与&lt;br style=&quot;font-size: 13px&quot;&gt;对应的远程分支有可能不一致，因此需要merge" style="edgeStyle=orthogonalEdgeStyle;curved=1;rounded=1;sketch=1;orthogonalLoop=1;jettySize=auto;exitX=0.855;exitY=1;exitDx=0;exitDy=-4.35;exitPerimeter=0;entryX=0.15;entryY=0.95;entryDx=0;entryDy=0;shadow=0;labelBackgroundColor=default;labelBorderColor=default;fontFamily=Comic Sans MS;fontSize=13;fontColor=#336600;startSize=6;endSize=10;strokeColor=#666666;strokeWidth=2;align=left;entryPerimeter=0;fillColor=#f5f5f5;html=1;" parent="1" source="QCrEsBUGIYsQ7TPKggf3-25" target="QCrEsBUGIYsQ7TPKggf3-10" edge="1">
          <mxGeometry x="-0.3567" y="60" relative="1" as="geometry">
            <Array as="points">
              <mxPoint x="280" y="600" />
              <mxPoint x="784" y="600" />
            </Array>
            <mxPoint as="offset" />
          </mxGeometry>
        </mxCell>
        <mxCell id="QCrEsBUGIYsQ7TPKggf3-29" style="edgeStyle=orthogonalEdgeStyle;curved=1;rounded=1;sketch=1;orthogonalLoop=1;jettySize=auto;html=1;exitX=0.5;exitY=1;exitDx=0;exitDy=0;exitPerimeter=0;entryX=0;entryY=0.5;entryDx=0;entryDy=0;shadow=0;labelBackgroundColor=none;labelBorderColor=none;fontFamily=Comic Sans MS;fontSize=18;fontColor=#336600;startSize=6;endSize=10;strokeColor=#000000;strokeWidth=2;align=left;" parent="1" source="QCrEsBUGIYsQ7TPKggf3-25" target="QCrEsBUGIYsQ7TPKggf3-31" edge="1">
          <mxGeometry relative="1" as="geometry">
            <Array as="points">
              <mxPoint x="230" y="840" />
              <mxPoint x="320" y="840" />
              <mxPoint x="320" y="858" />
              <mxPoint x="540" y="858" />
              <mxPoint x="540" y="900" />
              <mxPoint x="680" y="900" />
            </Array>
          </mxGeometry>
        </mxCell>
        <mxCell id="QCrEsBUGIYsQ7TPKggf3-30" value="1. pull [库名 分支名]&amp;nbsp;&lt;br&gt;先进行“fetch”远程分支名" style="edgeLabel;html=1;align=center;verticalAlign=middle;resizable=0;points=[];fontSize=18;fontFamily=Comic Sans MS;fontColor=#336600;" parent="QCrEsBUGIYsQ7TPKggf3-29" vertex="1" connectable="0">
          <mxGeometry x="0.0195" y="2" relative="1" as="geometry">
            <mxPoint as="offset" />
          </mxGeometry>
        </mxCell>
        <mxCell id="o7ttvzrCttuMc_gtNDWY-7" style="edgeStyle=orthogonalEdgeStyle;curved=1;orthogonalLoop=1;jettySize=auto;html=1;exitX=0.5;exitY=1;exitDx=0;exitDy=0;exitPerimeter=0;fontFamily=Comic Sans MS;fontSize=18;fontColor=#336600;endArrow=block;endFill=0;endSize=11;strokeColor=#000000;strokeWidth=2;" parent="1" source="QCrEsBUGIYsQ7TPKggf3-25" target="o7ttvzrCttuMc_gtNDWY-6" edge="1">
          <mxGeometry relative="1" as="geometry" />
        </mxCell>
        <mxCell id="o7ttvzrCttuMc_gtNDWY-8" value="clone" style="edgeLabel;html=1;align=center;verticalAlign=middle;resizable=0;points=[];fontSize=18;fontFamily=Comic Sans MS;fontColor=#336600;" parent="o7ttvzrCttuMc_gtNDWY-7" connectable="0" vertex="1">
          <mxGeometry x="0.3796" y="4" relative="1" as="geometry">
            <mxPoint as="offset" />
          </mxGeometry>
        </mxCell>
        <mxCell id="QCrEsBUGIYsQ7TPKggf3-25" value="Remote" style="shape=cylinder3;whiteSpace=wrap;html=1;boundedLbl=1;backgroundOutline=1;size=15;rounded=1;dashed=1;labelBackgroundColor=none;labelBorderColor=none;sketch=1;fontFamily=Comic Sans MS;fontSize=18;fontColor=#336600;fillColor=#B9E0A5;" parent="1" vertex="1">
          <mxGeometry x="160" y="285" width="140" height="195" as="geometry" />
        </mxCell>
        <mxCell id="QCrEsBUGIYsQ7TPKggf3-32" style="edgeStyle=orthogonalEdgeStyle;curved=1;rounded=1;sketch=1;orthogonalLoop=1;jettySize=auto;html=1;exitX=0.5;exitY=0;exitDx=0;exitDy=0;shadow=0;labelBackgroundColor=none;labelBorderColor=none;fontFamily=Comic Sans MS;fontSize=18;fontColor=#336600;startSize=6;endSize=10;strokeColor=#000000;strokeWidth=1;align=left;dashed=1;" parent="1" source="QCrEsBUGIYsQ7TPKggf3-31" target="QCrEsBUGIYsQ7TPKggf3-10" edge="1">
          <mxGeometry relative="1" as="geometry">
            <Array as="points">
              <mxPoint x="740" y="780" />
              <mxPoint x="840" y="780" />
            </Array>
          </mxGeometry>
        </mxCell>
        <mxCell id="QCrEsBUGIYsQ7TPKggf3-33" value="2. fetch 远程分支&lt;br&gt;3. merge 本地分支" style="edgeLabel;html=1;align=center;verticalAlign=middle;resizable=0;points=[];fontSize=18;fontFamily=Comic Sans MS;fontColor=#336600;" parent="QCrEsBUGIYsQ7TPKggf3-32" vertex="1" connectable="0">
          <mxGeometry x="-0.4591" y="-9" relative="1" as="geometry">
            <mxPoint y="-49" as="offset" />
          </mxGeometry>
        </mxCell>
        <mxCell id="o7ttvzrCttuMc_gtNDWY-3" style="edgeStyle=orthogonalEdgeStyle;orthogonalLoop=1;jettySize=auto;html=1;exitX=1;exitY=0.5;exitDx=0;exitDy=0;entryX=0.5;entryY=1;entryDx=0;entryDy=0;curved=1;dashed=1;endSize=11;endArrow=block;endFill=0;" parent="1" source="QCrEsBUGIYsQ7TPKggf3-31" target="QCrEsBUGIYsQ7TPKggf3-14" edge="1">
          <mxGeometry relative="1" as="geometry" />
        </mxCell>
        <mxCell id="o7ttvzrCttuMc_gtNDWY-4" value="4. checkout" style="edgeLabel;html=1;align=center;verticalAlign=middle;resizable=0;points=[];fontSize=18;fontFamily=Comic Sans MS;fontColor=#336600;" parent="o7ttvzrCttuMc_gtNDWY-3" connectable="0" vertex="1">
          <mxGeometry x="-0.175" y="20" relative="1" as="geometry">
            <mxPoint as="offset" />
          </mxGeometry>
        </mxCell>
        <mxCell id="QCrEsBUGIYsQ7TPKggf3-31" value="" style="ellipse;shape=doubleEllipse;whiteSpace=wrap;html=1;aspect=fixed;rounded=1;sketch=1;fontSize=18;dashed=1;fillColor=#B9E0A5;labelBackgroundColor=none;labelBorderColor=none;fontColor=default;" parent="1" vertex="1">
          <mxGeometry x="720" y="820" width="40" height="40" as="geometry" />
        </mxCell>
        <mxCell id="o7ttvzrCttuMc_gtNDWY-6" value="&lt;font style=&quot;font-size: 13px;&quot;&gt;1. 创建本地工作区&lt;br style=&quot;font-size: 13px;&quot;&gt;2. 初始化stage和repository&lt;br style=&quot;font-size: 13px;&quot;&gt;3. 拉取所有远程分支&lt;br style=&quot;font-size: 13px;&quot;&gt;&lt;/font&gt;4. 创建本地master分支并合并origin/master&lt;br style=&quot;font-size: 13px;&quot;&gt;5. 把master分支checkout到工作区" style="rounded=1;whiteSpace=wrap;html=1;fontFamily=Comic Sans MS;fontSize=13;fontColor=#336600;align=left;" parent="1" vertex="1">
          <mxGeometry x="20" y="920" width="300" height="100" as="geometry" />
        </mxCell>
        <mxCell id="kZsXW3HzWFgNGFYynsF7-4" style="edgeStyle=orthogonalEdgeStyle;curved=1;orthogonalLoop=1;jettySize=auto;html=1;exitX=0.855;exitY=1;exitDx=0;exitDy=-4.35;exitPerimeter=0;entryX=0.25;entryY=0;entryDx=0;entryDy=0;fontSize=16;endSize=10;strokeWidth=2;" parent="1" source="kZsXW3HzWFgNGFYynsF7-1" target="QCrEsBUGIYsQ7TPKggf3-4" edge="1">
          <mxGeometry relative="1" as="geometry" />
        </mxCell>
        <mxCell id="kZsXW3HzWFgNGFYynsF7-5" value="stash pop/apply" style="edgeLabel;html=1;align=center;verticalAlign=middle;resizable=0;points=[];fontSize=16;" parent="kZsXW3HzWFgNGFYynsF7-4" connectable="0" vertex="1">
          <mxGeometry x="0.0852" y="-14" relative="1" as="geometry">
            <mxPoint as="offset" />
          </mxGeometry>
        </mxCell>
        <mxCell id="kZsXW3HzWFgNGFYynsF7-1" value="Stash" style="shape=cylinder3;whiteSpace=wrap;html=1;boundedLbl=1;backgroundOutline=1;size=15;fontSize=16;fillColor=#f8cecc;strokeColor=default;sketch=1;" parent="1" vertex="1">
          <mxGeometry x="1340" y="40" width="120" height="80" as="geometry" />
        </mxCell>
        <mxCell id="kZsXW3HzWFgNGFYynsF7-6" value="&lt;h1 style=&quot;font-size: 64px&quot;&gt;小白 Git 生存指南-2024版&lt;/h1&gt;" style="text;html=1;strokeColor=none;fillColor=none;spacing=5;spacingTop=-20;whiteSpace=wrap;overflow=hidden;rounded=0;sketch=1;fontSize=64;fontFamily=Comic Sans MS;fontColor=#336600;" parent="1" vertex="1">
          <mxGeometry x="140" y="30" width="800" height="130" as="geometry" />
        </mxCell>
      </root>
    </mxGraphModel>
  </diagram>
</mxfile>
